<?xml version="1.0" encoding="UTF-8"?>
<svg width="512" height="512" viewBox="0 0 512 512" fill="none" xmlns="http://www.w3.org/2000/svg">
  <rect width="512" height="512" rx="85" fill="url(#gradient)"/>
  <defs>
    <linearGradient id="gradient" x1="0%" y1="0%" x2="100%" y2="100%">
      <stop offset="0%" style="stop-color:#10b981;stop-opacity:1" />
      <stop offset="100%" style="stop-color:#059669;stop-opacity:1" />
    </linearGradient>
  </defs>
  <g transform="translate(128, 128)">
    <!-- Pétales principaux -->
    <path d="M128 64 C85 21, 43 43, 64 85 C43 128, 85 149, 128 107 C171 149, 213 128, 192 85 C213 43, 171 21, 128 64 Z" fill="#ffffff" opacity="0.95"/>
    <!-- Pétales secondaires -->
    <path d="M128 64 C100 36, 72 50, 86 78 C72 106, 100 120, 128 92 C156 120, 184 106, 170 78 C184 50, 156 36, 128 64 Z" fill="#f3f4f6" opacity="0.8"/>
    <!-- Centre détaillé -->
    <circle cx="128" cy="85" r="20" fill="#fbbf24"/>
    <circle cx="128" cy="85" r="12" fill="#f59e0b"/>
    <circle cx="128" cy="85" r="6" fill="#d97706"/>
    <!-- Tige épaisse -->
    <rect x="118" y="105" width="20" height="128" fill="#22c55e" rx="10"/>
    <rect x="120" y="107" width="16" height="124" fill="#16a34a" rx="8"/>
    <!-- Feuilles détaillées -->
    <path d="M96 160 C85 140, 55 150, 70 170 C55 190, 85 200, 96 180 C107 200, 137 190, 122 170 C137 150, 107 140, 96 160 Z" fill="#16a34a"/>
    <path d="M160 160 C171 140, 201 150, 186 170 C201 190, 171 200, 160 180 C149 200, 119 190, 134 170 C119 150, 149 140, 160 160 Z" fill="#16a34a"/>
    <path d="M96 160 C85 140, 55 150, 70 170 C55 190, 85 200, 96 180 Z" fill="#15803d" opacity="0.7"/>
    <path d="M160 160 C171 140, 201 150, 186 170 C201 190, 171 200, 160 180 Z" fill="#15803d" opacity="0.7"/>
  </g>
  <!-- Texte stylisé -->
  <text x="256" y="420" text-anchor="middle" fill="white" font-family="Georgia, serif" font-size="48" font-weight="bold">Mathilde</text>
  <text x="256" y="460" text-anchor="middle" fill="#d1fae5" font-family="Georgia, serif" font-size="32">Fleurs</text>
</svg>