<?xml version="1.0" encoding="UTF-8"?>
<svg width="192" height="192" viewBox="0 0 192 192" fill="none" xmlns="http://www.w3.org/2000/svg">
  <rect width="192" height="192" rx="32" fill="#10b981"/>
  <g transform="translate(48, 48)">
    <!-- Pétales -->
    <path d="M48 24 C32 8, 16 16, 24 32 C16 48, 32 56, 48 40 C64 56, 80 48, 72 32 C80 16, 64 8, 48 24 Z" fill="#ffffff" opacity="0.9"/>
    <!-- Centre de la fleur -->
    <circle cx="48" cy="32" r="8" fill="#fbbf24"/>
    <!-- Tige -->
    <rect x="44" y="40" width="8" height="48" fill="#22c55e"/>
    <!-- Feuilles -->
    <path d="M36 60 C32 52, 20 56, 24 64 C20 72, 32 76, 36 68 Z" fill="#16a34a"/>
    <path d="M60 60 C64 52, 76 56, 72 64 C76 72, 64 76, 60 68 Z" fill="#16a34a"/>
  </g>
  <!-- Texte -->
  <text x="96" y="150" text-anchor="middle" fill="white" font-family="Arial, sans-serif" font-size="18" font-weight="bold">MF</text>
</svg>